<?xml version="1.0" encoding="UTF-8" standalone="no"?>
<!DOCTYPE svg PUBLIC "-//W3C//DTD SVG 1.1//EN"
 "http://www.w3.org/Graphics/SVG/1.1/DTD/svg11.dtd">
<!-- Generated by graphviz version 2.40.1 (20161225.0304)
 -->
<!-- Title: structs Pages: 1 -->
<svg width="277pt" height="352pt"
 viewBox="0.00 0.00 277.00 351.60" xmlns="http://www.w3.org/2000/svg" xmlns:xlink="http://www.w3.org/1999/xlink">
<g id="graph0" class="graph" transform="scale(1 1) rotate(0) translate(4 347.6)">
<title>structs</title>
<polygon fill="#ffffff" stroke="transparent" points="-4,4 -4,-347.6 273,-347.6 273,4 -4,4"/>
<!-- update -->
<g id="node1" class="node">
<title>update</title>
<polygon fill="#ff0000" stroke="transparent" points="86,-319.6 86,-339.6 172,-339.6 172,-319.6 86,-319.6"/>
<text text-anchor="start" x="96.7349" y="-326" font-family="Times,serif" font-weight="bold" font-size="14.00" fill="#000000">data/update</text>
<polygon fill="none" stroke="#000000" points="86,-297.6 86,-319.6 172,-319.6 172,-297.6 86,-297.6"/>
<text text-anchor="start" x="88.9656" y="-304" font-family="Times,serif" font-size="14.00" fill="#000000">delta_package</text>
<polygon fill="none" stroke="#000000" points="86,-275.6 86,-297.6 172,-297.6 172,-275.6 86,-275.6"/>
<text text-anchor="start" x="103.7349" y="-282" font-family="Times,serif" font-size="14.00" fill="#000000">metadata</text>
</g>
<!-- delta_package -->
<g id="node2" class="node">
<title>delta_package</title>
<polygon fill="#bf3eff" stroke="transparent" points="8,-194.8 8,-214.8 144,-214.8 144,-194.8 8,-194.8"/>
<text text-anchor="start" x="35.9656" y="-201.2" font-family="Times,serif" font-weight="bold" font-size="14.00" fill="#000000">delta_package</text>
<polygon fill="none" stroke="#000000" points="8,-172.8 8,-194.8 144,-194.8 144,-172.8 8,-172.8"/>
<text text-anchor="start" x="10.7019" y="-179.2" font-family="Times,serif" font-size="14.00" fill="#000000">delta_package(.zst file)</text>
</g>
<!-- update&#45;&gt;delta_package -->
<g id="edge1" class="edge">
<title>update:f0&#45;&gt;delta_package:h0</title>
<path fill="none" stroke="#000000" stroke-dasharray="5,2" d="M86,-308.6C47.4322,-308.6 71.3606,-264.7006 75.4402,-225.0315"/>
<polygon fill="#000000" stroke="#000000" points="78.9483,-224.9763 76,-214.8 71.9588,-224.5938 78.9483,-224.9763"/>
<text text-anchor="middle" x="105.2221" y="-241" font-family="Times,serif" font-size="14.00" fill="#000000">&lt;contains&gt;</text>
</g>
<!-- metadata -->
<g id="node3" class="node">
<title>metadata</title>
<polygon fill="#bf3eff" stroke="transparent" points="178,-194.8 178,-214.8 232,-214.8 232,-194.8 178,-194.8"/>
<text text-anchor="start" x="179.7349" y="-201.2" font-family="Times,serif" font-weight="bold" font-size="14.00" fill="#000000">metadata</text>
<polygon fill="none" stroke="#000000" points="178,-172.8 178,-194.8 232,-194.8 232,-172.8 178,-172.8"/>
<text text-anchor="start" x="193.3394" y="-179.2" font-family="Times,serif" font-size="14.00" fill="#000000">new</text>
</g>
<!-- update&#45;&gt;metadata -->
<g id="edge2" class="edge">
<title>update:f1&#45;&gt;metadata:h0</title>
<path fill="none" stroke="#000000" stroke-dasharray="5,2" d="M172,-286.6C203.6905,-286.6 205.059,-256.7344 205.024,-225.0981"/>
<polygon fill="#000000" stroke="#000000" points="208.5234,-224.7918 205,-214.8 201.5234,-224.8082 208.5234,-224.7918"/>
<text text-anchor="middle" x="235.2221" y="-241" font-family="Times,serif" font-size="14.00" fill="#000000">&lt;contains&gt;</text>
</g>
<!-- new -->
<g id="node4" class="node">
<title>new</title>
<polygon fill="#87ceeb" stroke="transparent" points="149,-92 149,-112 261,-112 261,-92 149,-92"/>
<text text-anchor="start" x="193.3394" y="-98.4" font-family="Times,serif" font-weight="bold" font-size="14.00" fill="#000000">new</text>
<polygon fill="none" stroke="#000000" points="149,-70 149,-92 261,-92 261,-70 149,-70"/>
<text text-anchor="start" x="169.6192" y="-76.4" font-family="Times,serif" font-size="14.00" fill="#000000">root_version</text>
<polygon fill="none" stroke="#000000" points="149,-48 149,-70 261,-70 261,-48 149,-48"/>
<text text-anchor="start" x="151.7314" y="-54.4" font-family="Times,serif" font-size="14.00" fill="#000000">timestamp_version</text>
<polygon fill="none" stroke="#000000" points="149,-26 149,-48 261,-48 261,-26 149,-26"/>
<text text-anchor="start" x="156.3976" y="-32.4" font-family="Times,serif" font-size="14.00" fill="#000000">snapshot_version</text>
<polygon fill="none" stroke="#000000" points="149,-4 149,-26 261,-26 261,-4 149,-4"/>
<text text-anchor="start" x="164.9593" y="-10.4" font-family="Times,serif" font-size="14.00" fill="#000000">target_version</text>
</g>
<!-- metadata&#45;&gt;new -->
<g id="edge3" class="edge">
<title>metadata:f0&#45;&gt;new:h0</title>
<path fill="none" stroke="#000000" stroke-dasharray="5,2" d="M205,-172.8C205,-149.4722 205,-141.2483 205,-122.0504"/>
<polygon fill="#000000" stroke="#000000" points="208.5001,-122 205,-112 201.5001,-122 208.5001,-122"/>
<text text-anchor="middle" x="236.2221" y="-138.2" font-family="Times,serif" font-size="14.00" fill="#000000">&lt;contains&gt;</text>
</g>
</g>
</svg>
